<!DOCTYPE svg PUBLIC "-//W3C//DTD SVG 1.1//EN" "http://www.w3.org/Graphics/SVG/1.1/DTD/svg11.dtd">
<!-- Uploaded to: SVG Repo, www.svgrepo.com, Transformed by: SVG Repo Mixer Tools -->
<svg fill="#e20303" height="71px" width="71px" version="1.1" id="Layer_1" xmlns="http://www.w3.org/2000/svg" xmlns:xlink="http://www.w3.org/1999/xlink" viewBox="0 0 326.502 326.502" xml:space="preserve">
<g id="SVGRepo_bgCarrier" stroke-width="0"/>
<g id="SVGRepo_tracerCarrier" stroke-linecap="round" stroke-linejoin="round"/>
<g id="SVGRepo_iconCarrier"> <g> <g> <path d="M163.251,37.156c-69.642,0-126.095,56.453-126.095,126.095s56.453,126.095,126.095,126.095 s126.095-56.453,126.095-126.095S232.893,37.156,163.251,37.156z M240.737,190.838h-49.9v49.9h-55.173v-49.9h-49.9v-55.173h49.9 v-49.9h55.173v49.9h49.9V190.838z"/> <path d="M163.251,0C73.088,0,0,73.088,0,163.251s73.088,163.251,163.251,163.251s163.251-73.093,163.251-163.251 S253.414,0,163.251,0z M163.251,310.579c-81.367,0-147.328-65.961-147.328-147.328S81.884,15.923,163.251,15.923 s147.328,65.961,147.328,147.328S244.618,310.579,163.251,310.579z"/> </g> </g> </g>
</svg>